PathFileType	4	(X/Y/Z)	C:/Users/opensim2020/Desktop/walking_exp_matlab/subject06_walking22_straight_03.trc	
DataRate	CameraRate	NumFrames	NumMarkers	Units	OrigDataRate	OrigDataStartFrame	OrigNumFrames	
100.00	100.00	7	44	mm	100.00	1722	77	
Frame#	Time	LFHD			RFHD			LBHD			RBHD			C7			T10			CLAV			STRN			RBAK			LSHO			LUPA			LELB			LFRM			LWRA			LWRB			LFIN			RSHO			RUPA			RELB			RFRM			RWRA			RWRB			RFIN			LASI			RASI			LPSI			RPSI			LTHI			LKNE			LTIB			LANK			LHEE			LTOE			RTHI			RKNE			RTIB			RANK			RHEE			RTOE			*39			*40			*41			*42			*43			
		X1	Y1	Z1	X2	Y2	Z2	X3	Y3	Z3	X4	Y4	Z4	X5	Y5	Z5	X6	Y6	Z6	X7	Y7	Z7	X8	Y8	Z8	X9	Y9	Z9	X10	Y10	Z10	X11	Y11	Z11	X12	Y12	Z12	X13	Y13	Z13	X14	Y14	Z14	X15	Y15	Z15	X16	Y16	Z16	X17	Y17	Z17	X18	Y18	Z18	X19	Y19	Z19	X20	Y20	Z20	X21	Y21	Z21	X22	Y22	Z22	X23	Y23	Z23	X24	Y24	Z24	X25	Y25	Z25	X26	Y26	Z26	X27	Y27	Z27	X28	Y28	Z28	X29	Y29	Z29	X30	Y30	Z30	X31	Y31	Z31	X32	Y32	Z32	X33	Y33	Z33	X34	Y34	Z34	X35	Y35	Z35	X36	Y36	Z36	X37	Y37	Z37	X38	Y38	Z38	X39	Y39	Z39	X40	Y40	Z40	X41	Y41	Z41	X42	Y42	Z42	X43	Y43	Z43	X44	Y44	Z44	

39	0.380	1355.67993	11.47909	1658.37280	1488.02637	18.88565	1655.71326	1367.30286	-125.20499	1615.21790	1496.71399	-116.32419	1617.34241	1423.15747	-133.03491	1459.82715	1431.56970	-183.83742	1133.14539	1429.55835	-27.96402	1376.64221	1426.03906	3.81942	1201.25500	1499.40283	-220.17892	1296.27856	1265.47803	-73.46331	1410.64917	1187.63025	-80.66872	1211.03186	1171.17297	-88.55231	1098.69958	1149.96143	-52.38932	952.38947	1198.05029	12.20526	842.01105	1153.30798	-42.18209	833.94397	1156.93079	3.72358	755.81958	1586.69458	-81.05660	1414.97998	1679.24939	-154.94455	1232.43542	1698.74548	-166.14398	1111.15576	1722.90063	-167.96605	991.76056	1702.30029	-125.03348	846.60901	1737.88525	-180.62799	854.00787	1743.99866	-151.33994	774.70764	1332.61560	-1.54598	967.24591	1553.14917	-15.36154	976.11713	1352.47778	-159.41753	998.07709	1519.77087	-164.45064	999.75342	1280.09949	-67.38922	650.36334	1309.65808	-65.42837	487.45602	1322.10339	-132.40428	238.34535	1367.95569	-164.08165	70.85894	1412.20801	-208.15894	59.36640	1372.59363	-23.65826	41.31836	1619.02271	-0.08348	652.40045	1603.28027	47.30827	535.06390	1598.60364	-77.09235	306.27551	1555.70288	-168.37616	144.61647	1506.10669	-209.27614	131.71295	1578.23328	-44.04776	60.02056	1418.18164	-81.72233	1708.26392												 
40	0.390	1356.10754	26.98632	1657.42432	1488.49609	34.11469	1654.59363	1367.47803	-109.79291	1614.51990	1496.90381	-101.13304	1616.45605	1422.83398	-117.91711	1458.99011	1431.09961	-168.96991	1132.27820	1429.60645	-13.10617	1375.67859	1425.60291	18.59345	1200.33325	1498.08630	-205.35126	1295.27954	1265.42590	-57.87594	1409.97681	1186.87085	-62.90419	1210.48157	1170.16956	-68.92860	1097.98914	1149.89160	-27.16834	953.03735	1198.95898	42.79877	846.27173	1154.58447	-11.75190	835.14215	1158.67834	37.68045	759.26099	1586.57690	-66.95442	1413.82385	1678.30872	-143.61830	1232.19629	1697.77722	-156.63066	1111.04639	1722.15991	-161.54855	991.78955	1701.09924	-123.84834	844.15588	1737.48840	-178.19530	854.24310	1743.50012	-151.91858	774.00812	1331.11072	12.29227	966.01666	1551.71924	0.52806	975.63818	1352.98694	-145.70711	997.11328	1520.34558	-148.84528	999.20398	1279.84009	-58.22552	649.57532	1309.60388	-59.71441	486.37411	1322.24194	-129.89374	238.05141	1368.28174	-163.74190	71.01395	1412.74622	-207.70670	59.50055	1372.63843	-23.42196	41.12603	1619.04675	19.18801	653.69995	1602.80420	68.04790	537.08990	1597.65869	-45.22450	301.31937	1554.53870	-126.03419	134.12057	1504.67822	-165.84793	118.62128	1578.13477	3.15295	58.00006	1418.55103	-66.23766	1707.43665												 
41	0.400	1356.51819	42.53150	1656.09399	1488.89771	49.42449	1653.10425	1367.68848	-94.25156	1613.40234	1497.27344	-86.10996	1615.29724	1422.54761	-102.74423	1457.77869	1430.79346	-154.11272	1131.05359	1429.67065	1.81744	1374.35364	1425.24414	33.36893	1198.99243	1496.95178	-190.81000	1294.02234	1265.43030	-42.27017	1408.93469	1186.35388	-45.31668	1209.57410	1169.29175	-49.26627	1097.02551	1149.92798	-1.99088	953.57092	1199.91089	72.67863	850.69543	1155.98621	18.63560	836.42682	1160.59460	71.55655	763.21204	1586.52295	-52.76625	1412.26514	1677.36536	-132.13649	1231.61560	1696.92371	-147.12387	1110.70447	1721.50684	-155.08228	991.61646	1701.84753	-120.10810	843.45923	1737.14673	-175.62839	854.56769	1743.61792	-151.30220	773.48517	1329.37903	26.34786	964.39758	1550.48901	16.43418	974.81213	1353.64209	-131.76384	995.84937	1521.04785	-133.17616	998.19110	1280.18384	-48.61086	648.70117	1309.40210	-53.75166	485.19052	1322.70532	-126.81951	237.57379	1368.64612	-163.32629	71.17231	1412.91516	-207.30081	59.80043	1372.64111	-23.18953	40.93655	1619.33630	38.18801	654.43066	1602.49768	88.21272	538.46692	1597.00403	-13.44642	296.35550	1553.64758	-83.07861	124.13581	1503.59619	-121.78118	106.39706	1578.02673	50.49615	56.67944	1418.89783	-50.82117	1706.21350												 
42	0.410	1357.03906	58.01878	1654.46899	1489.44641	64.67200	1651.34106	1367.96118	-78.76546	1611.89758	1497.34937	-70.77531	1613.61597	1422.30603	-87.44241	1456.17822	1430.63464	-139.22681	1129.63635	1429.80017	16.90110	1372.65051	1424.85474	48.21671	1197.29150	1495.90125	-176.04755	1292.40881	1265.40247	-26.66653	1407.55688	1185.75098	-27.78977	1208.41248	1168.34839	-29.61659	1095.78833	1150.17749	22.96431	954.15662	1201.15051	102.43396	855.44757	1157.51367	48.88799	838.08820	1162.61694	105.54297	767.72687	1586.46497	-38.41271	1410.32886	1676.48462	-120.55526	1230.70972	1696.08203	-137.56926	1110.11401	1720.87903	-148.52849	991.28931	1702.08252	-117.33563	842.10669	1736.83606	-172.87340	854.83875	1743.57764	-150.91786	773.02747	1328.40063	40.10246	962.55115	1549.29260	32.25684	973.50104	1354.35876	-117.92178	994.32367	1521.77087	-117.46399	996.74866	1279.99292	-39.06735	647.43713	1309.27405	-47.40037	483.82547	1322.65222	-124.10889	237.36166	1368.94507	-162.83795	71.28246	1413.22131	-206.91217	60.24207	1372.54907	-22.85198	40.78043	1619.87634	57.01163	654.67731	1601.84802	108.22195	539.22711	1596.38770	18.51953	291.43845	1553.04517	-39.60627	114.86732	1502.78235	-76.84482	94.85780	1578.18445	97.72446	55.84350	1419.29602	-35.37127	1704.59680												 
43	0.420	1357.69824	73.44791	1652.40747	1489.98279	79.96599	1649.22729	1368.11060	-63.54492	1610.04858	1497.40503	-55.28754	1611.51843	1422.15173	-72.12270	1454.26379	1430.64136	-124.36454	1127.85767	1429.93994	32.03254	1370.59302	1424.52344	63.12670	1195.23010	1494.90051	-161.23227	1290.45325	1265.44946	-11.10885	1405.81372	1185.39612	-10.36249	1206.84314	1167.53491	-10.16251	1094.36523	1150.33704	48.30159	954.80048	1202.54663	131.78166	860.54858	1159.15234	79.12286	839.99139	1164.77954	139.23784	772.74072	1586.45789	-23.89332	1408.05334	1675.65723	-108.77991	1229.56238	1695.36816	-127.89132	1109.24438	1720.28528	-141.86102	990.79248	1702.26233	-114.44484	840.74506	1736.54700	-169.88036	855.05347	1743.61548	-150.24951	772.63220	1327.47095	53.31324	960.26202	1548.47571	48.05837	971.74683	1355.07654	-103.92077	992.46997	1522.52747	-101.85020	994.84686	1280.12915	-29.01271	645.75165	1309.20142	-40.79491	482.28595	1322.87500	-120.75227	236.75331	1369.18726	-162.21394	71.36848	1413.46582	-206.52646	60.74035	1372.34961	-22.28467	40.71156	1620.50464	75.45061	654.36255	1601.70435	127.70482	539.30103	1596.04370	50.29042	286.71005	1552.85999	4.23703	106.49086	1502.34277	-31.36695	84.33298	1578.29639	144.76419	55.52464	1419.69690	-19.91568	1702.65674												 
44	0.430	1358.26636	89.01189	1650.20679	1490.61621	95.36785	1646.86877	1368.34155	-48.04934	1607.91870	1497.97339	-40.15201	1609.23547	1422.07336	-56.80875	1452.10693	1430.78271	-109.44311	1125.80591	1430.02271	47.22283	1368.24683	1424.15759	78.04916	1192.84424	1493.99841	-146.34251	1288.25537	1265.48999	4.42376	1403.77478	1184.90564	7.16344	1205.11450	1166.79272	9.51450	1092.69971	1150.72424	73.29266	955.56262	1204.13123	160.54555	865.77258	1160.99487	109.14987	842.19696	1167.00220	172.75592	778.39490	1586.48584	-9.23177	1405.47583	1674.88892	-96.89475	1228.17139	1694.62085	-118.10958	1108.24414	1719.79468	-135.05589	990.16382	1702.00903	-112.42609	838.68066	1736.24048	-166.58742	855.21625	1743.72534	-149.24629	772.33606	1326.89954	66.75658	957.64996	1547.76245	63.83980	969.59460	1355.73010	-89.84644	990.38348	1523.23901	-86.24242	992.54639	1280.39355	-18.87428	643.88910	1309.20557	-33.81033	480.59213	1323.39758	-116.90365	236.07867	1369.46411	-161.52052	71.49230	1413.76941	-206.03894	61.34158	1372.48059	-21.87822	40.52342	1621.30823	93.52064	653.52582	1601.68323	146.47672	538.67694	1596.00769	81.95185	282.18945	1553.04797	48.30825	99.08266	1502.56653	14.52126	75.07861	1579.04907	191.26260	55.62033	1420.24097	-4.42452	1700.40137												 
45	0.440	1358.82837	104.61216	1647.82361	1491.17908	110.77348	1644.17798	1368.81799	-32.44269	1605.50635	1498.33154	-24.78905	1606.57898	1422.08240	-41.38467	1449.71753	1431.04041	-94.58360	1123.45117	1430.16235	62.43619	1365.58142	1423.91455	93.02894	1190.14490	1493.21790	-131.36499	1285.68030	1265.57019	19.90836	1401.51208	1184.54517	24.79825	1203.12537	1166.11218	29.11309	1090.89673	1151.27051	98.04662	956.39691	1205.85327	189.20770	871.33997	1162.94287	138.94063	844.74921	1169.34180	205.72679	784.56390	1586.51038	5.54001	1402.61426	1674.21606	-84.76229	1226.49084	1693.98901	-108.18404	1107.04102	1719.33191	-128.06093	989.45923	1702.94385	-107.82475	838.02539	1735.96631	-163.06876	855.41718	1744.00269	-147.94574	772.06683	1326.49146	80.60116	954.66840	1547.31824	79.56715	967.06952	1356.35193	-75.57964	987.92755	1523.85620	-70.63034	989.92456	1280.63867	-8.37210	641.84894	1309.41882	-26.58314	478.78134	1323.97021	-113.69952	235.58777	1369.70520	-160.83385	71.70451	1414.02246	-205.54286	62.00023	1372.82617	-21.53034	40.23922	1621.61682	110.87965	651.65125	1601.36902	164.93633	537.31030	1596.01587	113.89757	277.78555	1553.64429	92.39652	92.68938	1502.89624	60.26476	67.24194	1579.39880	237.89516	56.20164	1420.84424	11.11889	1697.86914												 
